# xmcd
#
# Track frame offsets:
# 150
# 12809
# 23124
# 43812
# 54833
# 66624
# 78391
# 90895
# 110344
# 124187
# 133618
# 147594
# 167018
# 180621
# 204539
# 218193
#
# Disc length: 3038 seconds
#
#
# Revision: 8
# Processed by: cddbd v1.5PL3 Copyright (c) Steve Scherf et al.
# Submitted via: FreeRIP 2.51 
#
DISCID=de0bdc10
DTITLE=Johnny Cash - (Love, God, Murder) Murder - Disc 3
DYEAR=2000
DGENRE=Country
TTITLE0=Folsom Prison Blues (mono)
TTITLE1=Delia's Gone (mono)
TTITLE2=Mister Garfield
TTITLE3=Orleans Parish Prison (Live)
TTITLE4=When It's Springtime In Alaska (It's Forty Below) (mono)
TTITLE5=The Sound of Laughter
TTITLE6=Cocaine Blues (Live)
TTITLE7=Hardin Wouldn't Run (mono)
TTITLE8=The Long Black Veil
TTITLE9=Austin Prison
TTITLE10=Joe Bean
TTITLE11=Going to Memphis
TTITLE12=Don't Take Your Guns to Town
TTITLE13=Highway Patrolman
TTITLE14=Jacob Green
TTITLE15=The Wall
EXTD=YEAR: 2000
EXTT0=
EXTT1=
EXTT2=
EXTT3=
EXTT4=
EXTT5=
EXTT6=
EXTT7=
EXTT8=
EXTT9=
EXTT10=
EXTT11=
EXTT12=
EXTT13=
EXTT14=
EXTT15=
PLAYORDER=
